<svg width="210" height="67" viewBox="0 0 210 67" fill="none" xmlns="http://www.w3.org/2000/svg">
<path d="M76.952 0.14406L81.7496 0.115234V17.6126H76.9202L76.952 0.14406Z" fill="white"/>
<path d="M86.0203 0.0864431H91.4803L97.3191 8.72636V0.0576172H99.9524V17.5969L97.2449 17.6152L88.6562 4.88989V17.5969L86.0521 17.6152L86.0203 0.0864431Z" fill="white"/>
<path d="M113.487 4.58835C114.086 4.16645 114.7 3.74716 115.302 3.34098C113.969 0.924839 111.807 -0.133858 108.777 0.172745C105.351 0.838362 103.568 2.63343 103.423 5.55533C103.423 7.86927 105.121 9.34725 108.515 10.5029C114.353 13.0055 109.614 18.7393 105.399 13.0212C104.681 13.4563 103.963 13.9044 103.248 14.3394C105.018 16.8158 107.375 17.885 110.329 17.5391C114.806 16.5092 116.518 14.1507 115.479 10.4741C114.926 8.51916 110.652 6.60879 109.013 5.85669C105.677 4.11928 110.872 0.081026 113.49 4.58311" fill="white"/>
<path d="M116.894 0.0864258H131.149L131.178 2.66242H126.64V17.5969H121.49V2.66242H116.926L116.894 0.0864258Z" fill="white"/>
<path d="M158.568 0.0996094H163.411V12.141C163.369 14.2112 164.728 15.1808 166.805 15.1363C168.62 15.0079 169.82 13.7919 169.878 12.1986V0.131056H172.175V13.4303C171.663 20.0576 159.096 19.088 158.598 13.2547C158.598 8.87055 158.584 4.48639 158.568 0.0996094Z" fill="white"/>
<path d="M201.091 0H201.062C195.708 0.0104822 192.298 3.71854 192.046 8.0896V9.11685C192.134 10.7363 192.664 12.4135 193.684 13.9937C195.705 16.512 198.161 17.5969 201.059 17.686H201.117C213.115 17.0912 212.53 0.272536 201.088 0M201.059 15.6734C198.791 15.6734 196.961 12.6624 196.961 8.957C196.961 5.25156 198.791 2.24318 201.059 2.24318C203.327 2.24318 205.141 5.25418 205.141 8.957C205.141 12.6598 203.311 15.6734 201.059 15.6734Z" fill="white"/>
<path d="M87.5276 34.5804C90.0311 34.017 91.202 32.5679 91.0404 30.2382C90.439 26.3886 87.1938 25.9693 84.0465 25.9693C83.1829 25.9693 82.3193 25.9955 81.5139 25.9955L76.9043 25.9536V43.6265H81.5139V43.5977C82.3193 43.6265 83.1511 43.6265 84.0465 43.6265C84.942 43.6265 85.9486 43.6265 86.9739 43.5977C89.9277 43.3383 91.4802 41.4724 91.5835 39.4599V39.0668C91.4934 37.2141 90.1609 35.3351 87.5276 34.5804ZM81.5139 28.3435H84.4413C85.5221 28.4457 86.1659 29.3131 86.3434 30.9326C86.3566 32.5836 85.742 33.3199 84.4095 33.5532H81.5112V28.3435H81.5139ZM84.0465 41.3545C83.3604 41.4986 82.5259 41.5275 81.5139 41.4567V35.7833C82.3775 35.7833 83.2703 35.7256 84.0465 35.8252C85.4374 35.985 86.505 36.6035 86.5765 38.7628C86.4308 40.1517 85.6413 41.0374 84.0465 41.3519" fill="white"/>
<path d="M135.274 25.9565H130.752L124.722 43.5692C127.313 43.6006 127.313 43.5404 127.313 43.5404L129.157 38.2862H134.569L136.604 43.5404H142.181L135.274 25.9565ZM131.835 35.7967H130.023L131.777 30.1651L131.838 30.3407L133.653 35.7836L131.838 35.7967H131.835Z" fill="white"/>
<path d="M141.436 0.0864258H155.67L155.699 2.66242H151.164V17.5969H146.03V2.66242H141.465L141.436 0.0864258Z" fill="white"/>
<path d="M133.987 0.14406L138.784 0.115234V17.6126H133.957L133.987 0.14406Z" fill="white"/>
<path d="M175.322 0.0996094H189.572L189.604 2.6887H185.068V17.6127H179.932V2.6887H175.349L175.322 0.0996094Z" fill="white"/>
<path d="M110.327 26.0112H124.577L124.608 28.5872H120.07V43.5243H114.92V28.5872H110.356L110.327 26.0112Z" fill="white"/>
<path d="M160.879 26.0112H175.131L175.16 28.5872H170.625V43.5243H165.475V28.5872H160.908L160.879 26.0112Z" fill="white"/>
<path d="M94.3625 25.7651H99.2053V37.7489C99.1629 39.8034 100.509 40.7887 102.599 40.7441C104.414 40.6157 105.598 39.3998 105.659 37.8065V25.794H107.969V39.0355C107.458 45.6341 94.8871 44.6645 94.3917 38.8626C94.3758 34.4915 94.3758 30.1336 94.3625 25.7651Z" fill="white"/>
<path d="M144.316 26.0113L149.76 26.0271L155.609 34.6539V25.9956H158.245V43.5401L155.538 43.5558L146.936 30.8331V43.5401H144.345L144.316 26.0113Z" fill="white"/>
<path d="M196.07 25.9982H201.53L207.367 34.6382V25.9668H210V43.5087L207.295 43.527L198.704 30.8017V43.5087L196.102 43.527L196.07 25.9982Z" fill="white"/>
<path d="M186.486 25.9565H181.95L175.923 43.5692C178.512 43.6006 178.512 43.5404 178.512 43.5404L180.355 38.2862H185.768L187.802 43.5404H193.392L186.486 25.9565ZM183.031 35.7967H181.216L182.976 30.1651L183.031 30.3407L184.848 35.7836L183.031 35.7967Z" fill="white"/>
<path d="M0.647172 8.83645C-0.131692 6.90511 -0.208519 5.02094 0.42199 3.18657C1.0578 1.61686 2.04595 0.513616 3.50831 0.214874C38.8671 0.199151 56.0975 0.133638 55.1862 0.14674C56.6062 0.275147 57.5996 0.725879 58.1639 1.5068C62.1139 8.28613 51.2257 12.935 46.6054 16.056C44.9576 17.0309 44.1894 17.7856 44.298 18.3307C44.4358 18.9622 45.7312 19.6724 48.4228 20.7363C62.4741 27.382 74.1068 43.0712 64.7366 57.9584C60.4369 63.7918 54.5689 66.6796 47.2863 66.8814C42.6184 66.8814 35.8577 66.6875 27.012 66.2918C23.4435 65.9013 17.0404 66.1424 7.78676 66.9914C5.81841 67.0858 4.71369 66.3992 4.45672 64.9474C4.44877 63.5716 5.1667 62.6178 6.61052 62.0858C11.9407 59.1639 14.5263 55.8358 14.3541 52.1225V21.4439C18.9531 23.0214 23.2766 26.0036 27.3113 30.414V52.9244C27.5683 54.5465 28.6783 55.3746 30.6414 55.3903C35.0708 55.5004 39.3864 55.482 43.6993 55.4663C53.6046 54.6146 56.4631 42.3086 51.5568 35.0576C49.411 30.6 44.9471 26.132 38.3347 21.6718C36.0219 19.7536 35.863 17.8983 37.8816 16.0927C39.6487 14.3527 42.2157 12.1226 45.5882 9.39462C46.4942 8.47481 46.4942 7.75941 45.5882 7.25102C45.265 7.16192 44.7007 7.11737 43.898 7.12786H29.0678C28.1035 7.24316 27.5445 7.79347 27.3882 8.78141V20.0707C20.381 16.512 15.941 13.5665 14.0707 11.2264C13.9329 10.8123 13.9329 9.81653 14.0707 8.25207C13.9594 7.1593 13.4481 6.65092 12.5235 6.73478C11.4268 6.8789 10.8439 7.80133 10.7777 9.4811C10.8625 11.1504 11.9433 12.7489 14.0203 14.261C27.0544 21.9942 34.2787 26.7845 35.704 28.6241C39.2433 33.0319 39.0499 36.5722 35.1132 39.2137C33.5952 40.0156 32.7793 40.8175 32.6786 41.6194C29.7777 39.8925 28.8452 37.9035 29.8784 35.6577C30.8533 33.4564 30.0745 30.7599 27.5339 27.5943C23.8965 24.4522 21.3533 22.6545 19.8989 22.2091C9.36303 17.4161 2.94138 12.9586 0.647172 8.83645Z" fill="white"/>
<path d="M83.2439 62.4918H79.9986L79.3734 64.051H76.8726L80.3589 55.0835H82.9313L86.3461 64.051H83.8347L83.2439 62.4918ZM82.6081 60.7072L81.6464 57.8534H81.6226L80.6477 60.7072H82.6081Z" fill="white"/>
<path d="M98.9059 58.1394L98.1721 59.5178C97.7959 59.3212 97.4038 59.219 96.9932 59.219C96.8316 59.219 96.6779 59.2557 96.5296 59.3265C96.3812 59.3972 96.307 59.502 96.307 59.6357C96.307 59.6907 96.3203 59.7431 96.3415 59.7903C96.3653 59.8375 96.4024 59.8794 96.4501 59.9161C96.4978 59.9501 96.5455 59.9816 96.5958 60.0052C96.6435 60.0288 96.7071 60.0497 96.7812 60.0707C96.8581 60.0917 96.9163 60.1048 96.9614 60.1126C97.0064 60.1205 97.0647 60.131 97.1415 60.1414C97.2184 60.1545 97.266 60.1624 97.2925 60.1703C98.4873 60.4087 99.0834 61.0115 99.0834 61.9784C99.0834 62.7253 98.7973 63.2887 98.225 63.6739C97.6528 64.0591 96.9693 64.2504 96.1746 64.2504C95.2844 64.2504 94.4552 64.0172 93.6843 63.5481L94.4791 62.0387C94.7202 62.2038 95.0036 62.3506 95.3321 62.4737C95.6606 62.5969 95.952 62.6572 96.209 62.6572C96.3786 62.6572 96.5349 62.6178 96.6779 62.5392C96.821 62.4606 96.8952 62.3453 96.8952 62.1933C96.8952 62.1068 96.874 62.0282 96.8289 61.9627C96.7839 61.8946 96.7097 61.8395 96.6064 61.795C96.5031 61.7505 96.405 61.719 96.3123 61.6928C96.2196 61.6692 96.0898 61.6404 95.9202 61.6037C95.7507 61.567 95.6182 61.5382 95.5229 61.5146C95.1069 61.4045 94.7731 61.2316 94.5241 60.9984C94.2751 60.7651 94.1506 60.4009 94.1506 59.9082C94.1506 59.4156 94.2857 59.0251 94.5586 58.6897C94.8314 58.3542 95.1652 58.1105 95.5626 57.9638C95.96 57.817 96.3945 57.7437 96.866 57.7437C97.6369 57.7437 98.3125 57.8747 98.8979 58.1367" fill="white"/>
<path d="M108.043 61.1374V61.3627H103.439C103.439 62.2668 103.897 62.7176 104.808 62.7176C105.28 62.7176 105.63 62.5315 105.855 62.1594H107.958C107.791 62.8434 107.415 63.3622 106.827 63.7186C106.242 64.075 105.574 64.2532 104.819 64.2532C103.762 64.2532 102.901 63.9676 102.239 63.3963C101.576 62.825 101.248 62.0284 101.248 61.0064C101.248 59.9843 101.563 59.2034 102.191 58.6217C102.819 58.0373 103.643 57.749 104.66 57.749C105.677 57.749 106.557 58.053 107.148 58.6584C107.741 59.2637 108.038 60.0918 108.038 61.1374M103.468 60.1154H106.006C105.95 59.8297 105.804 59.5991 105.574 59.4209C105.341 59.2427 105.073 59.1536 104.769 59.1536C104.44 59.1536 104.157 59.2375 103.921 59.4026C103.685 59.5703 103.534 59.8061 103.47 60.1154" fill="white"/>
<path d="M112.671 57.9506V58.949H112.695C113.103 58.2283 113.768 57.8667 114.69 57.8667H115.111V59.9474C114.87 59.8111 114.56 59.743 114.184 59.743C113.614 59.743 113.219 59.9029 113 60.2252C112.78 60.5449 112.668 61.0009 112.668 61.5879V64.0512H110.48V57.9506H112.668H112.671Z" fill="white"/>
<path d="M119.138 57.9507L120.619 61.077L122.084 57.9507H124.537L121.315 64.0513H119.919L116.687 57.9507H119.138Z" fill="white"/>
<path d="M126.749 54.7509C126.99 54.5125 127.279 54.3945 127.615 54.3945C127.952 54.3945 128.24 54.5125 128.482 54.7509C128.723 54.9894 128.842 55.275 128.842 55.6078C128.842 55.9406 128.723 56.2263 128.482 56.4648C128.24 56.7032 127.952 56.8211 127.615 56.8211C127.279 56.8211 126.99 56.7032 126.749 56.4648C126.508 56.2263 126.389 55.9433 126.389 55.6078C126.389 55.2724 126.508 54.9894 126.749 54.7509ZM128.707 64.0512H126.518V57.9506H128.707V64.0512Z" fill="white"/>
<path d="M136.042 58.1052V59.937C135.65 59.6514 135.271 59.5098 134.911 59.5098C134.485 59.5098 134.13 59.6514 133.841 59.937C133.552 60.2226 133.409 60.5764 133.409 60.9957C133.409 61.415 133.552 61.7923 133.841 62.0727C134.13 62.3531 134.498 62.4946 134.948 62.4946C135.372 62.4946 135.738 62.3557 136.042 62.078V63.9097C135.576 64.1403 135.065 64.2556 134.503 64.2556C133.573 64.2556 132.781 63.9517 132.129 63.3463C131.475 62.741 131.149 61.981 131.149 61.0691C131.149 60.1021 131.48 59.3081 132.143 58.6844C132.805 58.0633 133.624 57.7515 134.601 57.7515C135.131 57.7515 135.611 57.8694 136.045 58.1079M135.155 65.1728L133.34 66.8736L132.402 66.2918L133.965 64.4129L135.155 65.1754V65.1728Z" fill="white"/>
<path d="M139.462 58.6266C140.18 58.0396 141.06 57.7461 142.101 57.7461C143.142 57.7461 144.022 58.0396 144.74 58.6266C145.458 59.2136 145.815 60.005 145.815 61.006C145.815 62.0071 145.455 62.7959 144.74 63.3776C144.022 63.9594 143.142 64.2503 142.101 64.2503C141.06 64.2503 140.188 63.9594 139.468 63.3776C138.747 62.7933 138.387 62.0045 138.387 61.006C138.387 60.0076 138.745 59.2136 139.462 58.6266ZM143.129 60.0233C142.877 59.7587 142.533 59.625 142.101 59.625C141.669 59.625 141.325 59.7587 141.073 60.0233C140.822 60.2906 140.694 60.6156 140.694 61.006C140.694 61.3965 140.822 61.7293 141.073 61.9861C141.325 62.2429 141.669 62.374 142.101 62.374C142.533 62.374 142.877 62.2456 143.129 61.9861C143.381 61.7293 143.508 61.4017 143.508 61.006C143.508 60.6103 143.381 60.2906 143.129 60.0233Z" fill="white"/>
<path d="M158.508 64.0513V63.3725H158.484C158.298 63.666 158.039 63.8862 157.702 64.0329C157.366 64.1797 157.005 64.253 156.621 64.253C155.723 64.253 154.981 63.9333 154.391 63.2965C153.8 62.6571 153.506 61.8919 153.506 60.9957C153.506 60.0995 153.797 59.3343 154.377 58.7001C154.958 58.0659 155.699 57.7489 156.595 57.7489C157.413 57.7489 158.049 58.0135 158.508 58.5455V54.1797H160.696V64.0513H158.508ZM158.2 60.0235C157.949 59.7588 157.604 59.6252 157.172 59.6252C156.741 59.6252 156.396 59.7588 156.144 60.0235C155.893 60.2908 155.766 60.6157 155.766 61.0062C155.766 61.3967 155.893 61.7295 156.144 61.9863C156.396 62.2431 156.741 62.3741 157.172 62.3741C157.604 62.3741 157.949 62.2457 158.2 61.9863C158.452 61.7295 158.579 61.4019 158.579 61.0062C158.579 60.6105 158.452 60.2908 158.2 60.0235Z" fill="white"/>
<path d="M170.254 57.9508V64.0514H168.066V63.3727H168.042C167.857 63.6662 167.597 63.8863 167.261 64.0331C166.924 64.1798 166.564 64.2532 166.18 64.2532C165.282 64.2532 164.54 63.9335 163.949 63.2967C163.358 62.6573 163.064 61.8921 163.064 60.9959C163.064 60.0996 163.356 59.3345 163.936 58.7003C164.516 58.0661 165.258 57.749 166.153 57.749C166.972 57.749 167.608 58.0137 168.066 58.5457V57.9508H170.254ZM167.759 60.0263C167.507 59.7616 167.163 59.6279 166.731 59.6279C166.299 59.6279 165.954 59.7616 165.703 60.0263C165.451 60.2936 165.324 60.6185 165.324 61.009C165.324 61.3994 165.451 61.7322 165.703 61.9891C165.954 62.2459 166.299 62.3769 166.731 62.3769C167.163 62.3769 167.507 62.2485 167.759 61.9891C168.01 61.7322 168.137 61.4047 168.137 61.009C168.137 60.6133 168.01 60.2936 167.759 60.0263Z" fill="white"/>
<path d="M180.324 57.9507L181.802 61.077L183.27 57.9507H185.723L182.499 64.0513H181.105L177.871 57.9507H180.324Z" fill="white"/>
<path d="M187.932 54.7509C188.173 54.5125 188.462 54.3945 188.798 54.3945C189.135 54.3945 189.424 54.5125 189.662 54.7509C189.903 54.9894 190.022 55.275 190.022 55.6078C190.022 55.9406 189.903 56.2263 189.662 56.4648C189.421 56.7032 189.132 56.8211 188.798 56.8211C188.465 56.8211 188.173 56.7032 187.932 56.4648C187.691 56.2263 187.572 55.9433 187.572 55.6078C187.572 55.2724 187.691 54.9894 187.932 54.7509ZM189.893 64.0512H187.704V57.9506H189.893V64.0512Z" fill="white"/>
<path d="M197.419 64.0513V63.3725H197.395C197.21 63.666 196.95 63.8862 196.614 64.0329C196.277 64.1797 195.917 64.253 195.53 64.253C194.632 64.253 193.89 63.9333 193.302 63.2965C192.711 62.6571 192.417 61.8919 192.417 60.9957C192.417 60.0995 192.709 59.3343 193.289 58.7001C193.869 58.0659 194.608 57.7489 195.506 57.7489C196.325 57.7489 196.961 58.0135 197.419 58.5455V54.1797H199.607V64.0513H197.419ZM197.112 60.0235C196.86 59.7588 196.518 59.6252 196.084 59.6252C195.649 59.6252 195.308 59.7588 195.056 60.0235C194.804 60.2908 194.677 60.6157 194.677 61.0062C194.677 61.3967 194.804 61.7295 195.056 61.9863C195.31 62.2431 195.652 62.3741 196.084 62.3741C196.516 62.3741 196.86 62.2457 197.112 61.9863C197.363 61.7295 197.491 61.4019 197.491 61.0062C197.491 60.6105 197.363 60.2908 197.112 60.0235Z" fill="white"/>
<path d="M209.165 57.9508V64.0514H206.977V63.3727H206.953C206.768 63.6662 206.508 63.8863 206.172 64.0331C205.835 64.1798 205.475 64.2532 205.091 64.2532C204.193 64.2532 203.449 63.9335 202.86 63.2967C202.27 62.6573 201.976 61.8921 201.976 60.9959C201.976 60.0996 202.267 59.3345 202.847 58.7003C203.427 58.0661 204.169 57.749 205.065 57.749C205.883 57.749 206.522 58.0137 206.977 58.5457V57.9508H209.165ZM206.67 60.0263C206.418 59.7616 206.074 59.6279 205.642 59.6279C205.21 59.6279 204.866 59.7616 204.614 60.0263C204.363 60.2936 204.235 60.6185 204.235 61.009C204.235 61.3994 204.363 61.7322 204.614 61.9891C204.866 62.2459 205.21 62.3769 205.642 62.3769C206.074 62.3769 206.418 62.2485 206.67 61.9891C206.922 61.7322 207.049 61.4047 207.049 61.009C207.049 60.6133 206.922 60.2936 206.67 60.0263Z" fill="white"/>
<path d="M209.897 49.4023H76.9202V50.3877H209.897V49.4023Z" fill="white"/>
</svg>
