<svg width="220" height="49" viewBox="0 0 220 49" fill="none" xmlns="http://www.w3.org/2000/svg">
<path d="M48.7778 13.3543C48.1546 5.95223 41.6235 0.370605 34.0651 0.370605H19.5913C8.95374 0.370605 0.328125 8.84371 0.328125 19.2995V38.8324C0.328125 43.9638 4.56267 48.1248 9.78471 48.1248V18.8045C9.78471 13.8297 13.8912 9.78051 18.9368 9.78051H34.4179C37.0645 9.78051 39.2103 11.8946 39.2103 14.5036C39.2103 17.1127 37.0645 19.2268 34.4179 19.2268H22.2379C20.6528 19.2268 19.3665 20.4907 19.3665 22.0483V29.2491H34.398C36.8596 29.2491 38.8859 31.036 39.1875 33.3934C39.1932 33.4437 39.2046 33.494 39.2074 33.5444C39.216 33.6283 39.216 33.7121 39.2217 33.796C39.2245 33.8632 39.233 33.9303 39.233 34.0002C39.233 34.0142 39.233 34.0281 39.233 34.0421C39.233 34.0561 39.233 34.0701 39.233 34.0841C39.233 34.1484 39.2245 34.2099 39.2188 34.2714C39.2131 34.3581 39.2103 34.4448 39.2017 34.5287C39.196 34.5846 39.1847 34.6406 39.1761 34.6965C39.159 34.8083 39.142 34.9174 39.1164 35.0265C39.1164 35.0376 39.1107 35.046 39.1078 35.0572C38.6155 37.1601 36.6946 38.7485 34.4208 38.7485H19.4832V48.1752H34.0651C41.6235 48.1752 48.1575 42.5935 48.7807 35.1886C49.1364 30.9549 47.5741 27.0763 44.8734 24.2687C47.5769 21.4611 49.1393 17.5825 48.7807 13.3487L48.7778 13.3543Z" fill="white"/>
<path d="M34.2128 38.7513H34.4206C36.6972 38.7513 38.6153 37.1658 39.1076 35.0601C38.5896 37.1965 36.5378 38.7513 34.21 38.7513H34.2128Z" fill="white"/>
<path d="M39.2358 34C39.2358 33.9301 39.2272 33.863 39.2244 33.7959C39.2272 33.877 39.2329 33.9581 39.2329 34.042C39.2329 34.028 39.2329 34.014 39.2329 34H39.2358Z" fill="white"/>
<path d="M39.1908 33.3931C39.1964 33.443 39.2077 33.493 39.2106 33.5429C39.2049 33.493 39.1964 33.443 39.1908 33.3931Z" fill="white"/>
<path d="M39.1761 34.6992C39.159 34.8111 39.1419 34.9201 39.1163 35.0292C39.1419 34.9201 39.159 34.8111 39.1761 34.6992Z" fill="white"/>
<path d="M39.2217 34.2715C39.216 34.3582 39.2131 34.4449 39.2046 34.5288C39.2131 34.4449 39.2188 34.3582 39.2217 34.2715Z" fill="white"/>
<path d="M19.4834 38.751H19.4749V48.1777H19.4834V38.751Z" fill="white"/>
<path d="M63.6788 21.1873V5.61971C63.6788 4.73045 63.8183 3.98381 64.0943 3.38258C64.3704 2.78136 64.7432 2.30876 65.2042 1.9648C65.6652 1.62085 66.1746 1.37476 66.7295 1.22935C67.2845 1.08394 67.8309 1.01123 68.3659 1.01123C69.0318 1.01123 69.8599 1.01682 70.8502 1.02521C71.8406 1.0336 72.8935 1.06716 74.0148 1.12029C75.1332 1.17622 76.2117 1.25731 77.2476 1.36637V4.74723H69.507C68.9322 4.74723 68.5025 4.89823 68.2179 5.19745C67.9305 5.49667 67.7882 5.89375 67.7882 6.38313V9.81991L75.9186 10.038V13.2287L67.7882 13.4468V21.1901H63.6817L63.6788 21.1873Z" fill="white"/>
<path d="M88.3741 21.3524C87.0423 21.3524 85.9979 20.9665 85.2381 20.1947C84.4782 19.4229 84.0997 18.3267 84.0997 16.9089V6.54541H88.2062V15.7064C88.2062 16.5258 88.4054 17.0739 88.8038 17.3563C89.2023 17.6388 89.723 17.7786 90.3719 17.7786C90.8898 17.7786 91.422 17.6835 91.9684 17.4933C92.5148 17.3032 92.9986 17.0431 93.4254 16.7159V6.54541H97.5604V21.1874H94.1483L93.4283 19.6885C92.7623 20.1248 91.994 20.5107 91.126 20.8462C90.2552 21.1818 89.3417 21.3496 88.3798 21.3496L88.3741 21.3524Z" fill="white"/>
<path d="M105.441 21.1874V6.5454H108.827L109.547 8.04427C110.102 7.59126 110.799 7.18578 111.642 6.83063C112.484 6.47549 113.349 6.29932 114.237 6.29932C115.458 6.29932 116.4 6.53701 117.066 7.00681C117.732 7.4794 118.198 8.11139 118.466 8.90277C118.733 9.69415 118.867 10.5694 118.867 11.5342V21.1874H114.761V12.0543C114.761 11.5817 114.673 11.1902 114.496 10.8826C114.32 10.5722 114.075 10.3373 113.762 10.1751C113.446 10.0101 113.067 9.92905 112.624 9.92905C112.234 9.92905 111.861 9.97379 111.499 10.0661C111.138 10.1584 110.797 10.2842 110.472 10.4492C110.148 10.6114 109.838 10.8043 109.542 11.0224V21.193H105.435L105.441 21.1874Z" fill="white"/>
<path d="M131.605 21.3522C130.438 21.3522 129.459 21.1117 128.665 20.6307C127.869 20.1498 127.274 19.3668 126.875 18.2846C126.477 17.2024 126.278 15.7818 126.278 14.0172C126.278 12.2527 126.449 10.7287 126.79 9.59892C127.132 8.47197 127.709 7.64424 128.523 7.11851C129.337 6.59279 130.455 6.32713 131.881 6.32713C132.564 6.32713 133.241 6.39424 133.907 6.53127C134.573 6.66829 135.165 6.82768 135.683 7.00945V0.384766H139.818V21.1872H136.349L135.683 19.7974C135.367 20.0882 134.986 20.3511 134.531 20.5888C134.078 20.8265 133.6 21.0111 133.102 21.1481C132.601 21.2851 132.103 21.3522 131.602 21.3522H131.605ZM133.048 18.1084C133.603 18.1084 134.107 18.0189 134.559 17.8371C135.012 17.6554 135.387 17.4736 135.683 17.2918V9.9289C135.313 9.80306 134.923 9.67443 134.516 9.54579C134.109 9.41995 133.674 9.35564 133.213 9.35564C132.527 9.35564 131.978 9.47309 131.562 9.71078C131.147 9.94847 130.845 10.3875 130.66 11.0335C130.475 11.6794 130.384 12.6107 130.384 13.8271C130.384 14.954 130.472 15.8321 130.649 16.4585C130.825 17.0849 131.107 17.5183 131.494 17.7532C131.884 17.9909 132.399 18.1084 133.048 18.1084Z" fill="white"/>
<path d="M150.834 21.3526C149.707 21.3526 148.791 21.0254 148.088 20.3711C147.385 19.7167 147.035 18.8079 147.035 17.6446V16.3358C147.035 15.2285 147.434 14.314 148.228 13.5954C149.022 12.8767 150.262 12.5187 151.947 12.5187H155.749V11.5092C155.749 11.0562 155.666 10.6787 155.499 10.3767C155.334 10.0775 155.023 9.85937 154.568 9.72234C154.115 9.58532 153.427 9.5182 152.502 9.5182H148.034V7.17482C148.754 6.9567 149.594 6.76654 150.544 6.60155C151.497 6.43936 152.647 6.35547 153.999 6.35547C155.237 6.35547 156.298 6.50088 157.175 6.79171C158.054 7.08253 158.72 7.58309 159.172 8.29058C159.625 8.99807 159.853 9.97961 159.853 11.2352V21.1876H156.606L155.94 19.6328C155.809 19.7782 155.587 19.9432 155.274 20.125C154.958 20.3067 154.577 20.4941 154.121 20.6843C153.669 20.8744 153.159 21.0338 152.596 21.1624C152.032 21.2883 151.443 21.3526 150.834 21.3526ZM152.915 18.545C153.1 18.545 153.307 18.5226 153.538 18.4779C153.768 18.4331 154.01 18.3772 154.258 18.3129C154.508 18.2486 154.739 18.1871 154.952 18.1227C155.166 18.0584 155.342 17.9997 155.479 17.9466C155.618 17.8906 155.703 17.8571 155.743 17.8375V14.4287L153.245 14.5937C152.525 14.6496 151.993 14.8314 151.648 15.139C151.307 15.4494 151.136 15.866 151.136 16.3946V16.993C151.136 17.3565 151.216 17.6557 151.372 17.8934C151.529 18.1311 151.742 18.2989 152.01 18.3968C152.277 18.4975 152.579 18.5478 152.912 18.5478L152.915 18.545Z" fill="white"/>
<path d="M173.503 21.3522C172.596 21.3522 171.759 21.2348 170.993 20.9971C170.225 20.7622 169.565 20.3651 169.01 19.8114C168.455 19.2577 168.025 18.5027 167.721 17.5491C167.416 16.5955 167.263 15.3903 167.263 13.9362C167.263 12.482 167.402 11.2097 167.678 10.2281C167.954 9.2466 168.367 8.46919 168.913 7.89593C169.46 7.32267 170.128 6.91999 170.925 6.68229C171.719 6.44739 172.618 6.32715 173.617 6.32715C174.522 6.32715 175.387 6.37748 176.213 6.47815C177.035 6.57882 177.9 6.755 178.808 7.00947V9.32769H174.895C174.044 9.32769 173.358 9.45073 172.84 9.69682C172.322 9.9429 171.947 10.3959 171.716 11.0615C171.486 11.7242 171.369 12.675 171.369 13.911C171.369 15.147 171.486 16.0558 171.716 16.6906C171.947 17.3282 172.325 17.7533 172.855 17.9714C173.381 18.1895 174.078 18.2986 174.949 18.2986H179.027V20.5888C178.563 20.7342 178.028 20.8657 177.416 20.9831C176.807 21.1006 176.164 21.1928 175.487 21.2544C174.813 21.3187 174.149 21.3494 173.503 21.3494V21.3522ZM171.534 26.5871V24.9232L172.032 24.8422C172.422 24.8058 172.707 24.7107 172.892 24.5569C173.077 24.4031 173.168 24.1878 173.168 23.9165C173.168 23.6788 173.085 23.4719 172.917 23.2901C172.752 23.1084 172.408 22.9909 171.89 22.935L173.526 22.5519C174.175 22.5519 174.719 22.6973 175.163 22.9881C175.607 23.279 175.828 23.7516 175.828 24.4059C175.828 25.0603 175.584 25.6112 175.094 25.9999C174.605 26.3914 173.859 26.5871 172.86 26.5871H171.528H171.534ZM171.896 22.9322L173.31 20.723H175.168L173.754 22.9322H171.896Z" fill="white"/>
<path d="M189.239 21.3523C188.112 21.3523 187.195 21.0252 186.492 20.3708C185.789 19.7165 185.439 18.8076 185.439 17.6443V16.3356C185.439 15.2282 185.838 14.3138 186.632 13.5951C187.426 12.8764 188.667 12.5185 190.351 12.5185H194.153V11.509C194.153 11.056 194.071 10.6785 193.903 10.3765C193.738 10.0772 193.428 9.85912 192.972 9.7221C192.52 9.58507 191.831 9.51796 190.906 9.51796H186.438V7.17457C187.158 6.95645 187.998 6.7663 188.948 6.60131C189.902 6.43912 191.051 6.35522 192.403 6.35522C193.641 6.35522 194.703 6.50064 195.579 6.79146C196.458 7.08229 197.124 7.58285 197.577 8.29034C198.029 8.99783 198.257 9.97937 198.257 11.235V21.1874H195.01L194.344 19.6326C194.213 19.778 193.991 19.943 193.678 20.1247C193.362 20.3065 192.981 20.4939 192.525 20.684C192.073 20.8742 191.564 21.0336 191 21.1622C190.437 21.288 189.848 21.3523 189.239 21.3523ZM187.019 4.0398C187.076 3.16732 187.235 2.47102 187.506 1.95368C187.773 1.43635 188.12 1.06442 188.547 0.835119C188.971 0.60861 189.435 0.493957 189.936 0.493957C190.397 0.493957 190.809 0.558275 191.171 0.684113C191.532 0.812748 191.868 0.960957 192.184 1.13433C192.497 1.30771 192.793 1.45592 193.072 1.58456C193.351 1.71319 193.655 1.77471 193.988 1.77471C194.338 1.77471 194.623 1.65167 194.833 1.40559C195.047 1.1595 195.161 0.809951 195.181 0.356934H197.232C197.178 1.57337 196.905 2.48779 196.413 3.09741C195.923 3.70703 195.243 4.01184 194.372 4.01184C193.909 4.01184 193.493 3.94752 193.123 3.82168C192.753 3.69584 192.406 3.54484 192.082 3.37146C191.757 3.19808 191.447 3.04987 191.151 2.92124C190.855 2.7954 190.568 2.73108 190.292 2.73108C189.922 2.73108 189.634 2.84853 189.432 3.08623C189.227 3.32392 189.108 3.63991 189.071 4.0398H187.016H187.019ZM191.319 18.5448C191.504 18.5448 191.712 18.5224 191.942 18.4776C192.173 18.4329 192.415 18.377 192.662 18.3127C192.913 18.2483 193.143 18.1868 193.356 18.1225C193.57 18.0582 193.746 17.9995 193.883 17.9463C194.022 17.8904 194.108 17.8568 194.148 17.8373V14.4284L191.649 14.5934C190.929 14.6494 190.397 14.8311 190.052 15.1387C189.711 15.4491 189.54 15.8658 189.54 16.3943V16.9928C189.54 17.3563 189.62 17.6555 189.776 17.8932C189.933 18.1309 190.146 18.2987 190.414 18.3965C190.681 18.4972 190.983 18.5476 191.316 18.5476L191.319 18.5448Z" fill="white"/>
<path d="M212.488 21.3243C211.267 21.3243 210.223 21.2012 209.352 20.9551C208.481 20.7091 207.776 20.2952 207.229 19.7135C206.683 19.1319 206.287 18.3601 206.037 17.3953C205.786 16.4334 205.661 15.2421 205.661 13.8243C205.661 12.3338 205.786 11.1034 206.037 10.1303C206.287 9.15711 206.683 8.39369 207.229 7.84C207.776 7.28632 208.487 6.89482 209.366 6.66831C210.246 6.4418 211.284 6.32715 212.488 6.32715C213.692 6.32715 214.782 6.4446 215.653 6.68229C216.521 6.91999 217.229 7.31428 217.776 7.86797C218.322 8.42166 218.718 9.18507 218.968 10.1582C219.219 11.1314 219.344 12.3534 219.344 13.8243C219.344 15.2952 219.224 16.4921 218.982 17.4652C218.74 18.4384 218.353 19.2074 217.816 19.7695C217.278 20.3343 216.572 20.7342 215.693 20.9691C214.813 21.204 213.746 21.3243 212.488 21.3243ZM212.488 18.1056C212.989 18.1056 213.407 18.0609 213.752 17.9686C214.093 17.8791 214.372 17.6917 214.586 17.4093C214.799 17.1269 214.961 16.6962 215.072 16.1146C215.183 15.5329 215.24 14.7695 215.24 13.8243C215.24 12.8791 215.183 12.0933 215.072 11.5201C214.961 10.9468 214.799 10.5218 214.586 10.2393C214.372 9.95688 214.096 9.77232 213.752 9.68004C213.41 9.59055 212.989 9.54301 212.488 9.54301C211.987 9.54301 211.595 9.58776 211.253 9.68004C210.912 9.77232 210.63 9.95688 210.408 10.2393C210.186 10.5218 210.024 10.9468 209.921 11.5201C209.819 12.0933 209.768 12.8596 209.768 13.8243C209.768 14.7891 209.819 15.5329 209.921 16.1146C210.024 16.6962 210.186 17.1269 210.408 17.4093C210.63 17.6917 210.912 17.8763 211.253 17.9686C211.595 18.0609 212.007 18.1056 212.488 18.1056Z" fill="white"/>
<path d="M63.6787 48.1224V27.9463H71.7523C73.787 27.9463 75.2725 28.4049 76.206 29.3221C77.1394 30.2393 77.6061 31.5453 77.6061 33.2343C77.6061 34.0341 77.4894 34.7388 77.2589 35.3484C77.0284 35.958 76.6983 36.4585 76.2743 36.8472C75.8474 37.2387 75.3408 37.5072 74.7489 37.6526C75.1929 37.7617 75.6226 37.9351 76.0381 38.1699C76.4535 38.4076 76.832 38.7236 77.1764 39.1235C77.5179 39.5234 77.7882 40.01 77.9817 40.5832C78.1752 41.1565 78.272 41.8137 78.272 42.5603C78.272 43.9222 78.0358 45.0128 77.5634 45.8321C77.091 46.6514 76.3966 47.2359 75.4831 47.591C74.5668 47.9462 73.4427 48.1224 72.1109 48.1224H63.6759H63.6787ZM67.7852 36.2628H71.7807C72.3727 36.2628 72.8394 36.0503 73.1809 35.6224C73.5224 35.1946 73.6931 34.6381 73.6931 33.9446C73.7102 33.0553 73.5252 32.4373 73.1382 32.0906C72.7483 31.7466 72.2788 31.5732 71.7238 31.5732H67.7824V36.2628H67.7852ZM67.7852 44.4982H72.0027C72.4836 44.4982 72.8991 44.4087 73.252 44.2242C73.602 44.0424 73.8752 43.76 74.0716 43.3797C74.2651 42.9965 74.3619 42.4904 74.3619 41.8528C74.3619 41.3271 74.2594 40.8797 74.0574 40.5161C73.8525 40.1526 73.5764 39.8702 73.2236 39.6716C72.8707 39.4731 72.4637 39.3724 72.0027 39.3724H67.7852V44.4982Z" fill="white"/>
<path d="M90.7474 48.2846C89.4156 48.2846 88.3712 47.8987 87.6113 47.1269C86.8515 46.3551 86.473 45.2589 86.473 43.8412V33.4805H90.5795V42.6415C90.5795 43.4608 90.7787 44.0089 91.1771 44.2914C91.5755 44.5738 92.0963 44.7136 92.7452 44.7136C93.2631 44.7136 93.7953 44.6186 94.3417 44.4284C94.888 44.2382 95.3718 43.9782 95.7987 43.651V33.4805H99.9337V48.1224H96.5215L95.8015 46.6236C95.1356 47.0598 94.3673 47.4457 93.4993 47.7813C92.6285 48.1169 91.715 48.2846 90.7531 48.2846H90.7474Z" fill="white"/>
<path d="M114.351 48.1223C113.204 48.1223 112.273 47.9573 111.562 47.6301C110.851 47.3029 110.336 46.7576 110.022 45.9942C109.707 45.2308 109.57 44.2045 109.607 42.9126L109.746 36.7241H107.416V34.1347L109.886 33.4803L110.441 29.3892H113.688V33.4803H117.182V36.7241H113.688V42.8846C113.688 43.2845 113.725 43.6117 113.799 43.8662C113.873 44.1206 113.978 44.3248 114.118 44.4786C114.257 44.6324 114.419 44.747 114.604 44.8197C114.789 44.8924 114.974 44.9372 115.159 44.9568L117.046 45.1217V48.1223H114.354H114.351Z" fill="white"/>
<path d="M128.296 48.2847C127.169 48.2847 126.252 47.9575 125.549 47.3032C124.846 46.6488 124.496 45.74 124.496 44.5767V43.268C124.496 42.1606 124.895 41.2462 125.689 40.5275C126.483 39.8088 127.724 39.4509 129.408 39.4509H133.21V38.4414C133.21 37.9884 133.128 37.6108 132.96 37.3088C132.795 37.0096 132.485 36.7915 132.029 36.6545C131.577 36.5174 130.888 36.4503 129.963 36.4503H125.495V34.1069C126.215 33.8888 127.055 33.6987 128.005 33.5337C128.959 33.3715 130.108 33.2876 131.46 33.2876C132.698 33.2876 133.759 33.433 134.636 33.7238C135.515 34.0147 136.181 34.5152 136.634 35.2227C137.086 35.9302 137.314 36.9117 137.314 38.1673V48.1197H134.067L133.401 46.5649C133.27 46.7103 133.048 46.8753 132.735 47.0571C132.419 47.2389 132.038 47.4262 131.582 47.6164C131.13 47.8065 130.621 47.9659 130.057 48.0946C129.494 48.2204 128.905 48.2847 128.296 48.2847ZM130.376 45.4771C130.561 45.4771 130.769 45.4548 130.999 45.41C131.23 45.3653 131.471 45.3093 131.719 45.245C131.969 45.1807 132.2 45.1192 132.413 45.0549C132.627 44.9906 132.803 44.9318 132.94 44.8787C133.079 44.8228 133.165 44.7892 133.205 44.7696V41.3608L130.706 41.5258C129.986 41.5817 129.454 41.7635 129.109 42.0711C128.768 42.3815 128.597 42.7982 128.597 43.3267V43.9251C128.597 44.2887 128.677 44.5879 128.833 44.8256C128.99 45.0633 129.203 45.231 129.471 45.3289C129.738 45.4296 130.04 45.4799 130.373 45.4799L130.376 45.4771Z" fill="white"/>
<path d="M146.042 48.1224V33.4805H149.428L150.148 34.9793C150.703 34.5263 151.4 34.1208 152.243 33.7657C153.085 33.4105 153.95 33.2344 154.838 33.2344C156.059 33.2344 157.001 33.4721 157.667 33.9419C158.333 34.4145 158.799 35.0464 159.067 35.8378C159.334 36.6292 159.468 37.5045 159.468 38.4692V48.1224H155.362V38.9894C155.362 38.5168 155.273 38.1253 155.097 37.8177C154.921 37.5073 154.676 37.2724 154.363 37.1102C154.047 36.9452 153.668 36.8641 153.225 36.8641C152.835 36.8641 152.462 36.9088 152.1 37.0011C151.739 37.0934 151.397 37.2193 151.073 37.3842C150.749 37.5464 150.438 37.7394 150.142 37.9575V48.128H146.036L146.042 48.1224Z" fill="white"/>
<path d="M173.862 48.1223C172.715 48.1223 171.785 47.9573 171.073 47.6301C170.362 47.3029 169.847 46.7576 169.534 45.9942C169.218 45.2308 169.081 44.2045 169.118 42.9126L169.258 36.7241H166.927V34.1347L169.397 33.4803L169.952 29.3892H173.199V33.4803H176.694V36.7241H173.199V42.8846C173.199 43.2845 173.236 43.6117 173.31 43.8662C173.384 44.1206 173.489 44.3248 173.629 44.4786C173.768 44.6324 173.93 44.747 174.115 44.8197C174.3 44.8924 174.485 44.9372 174.67 44.9568L176.557 45.1217V48.1223H173.865H173.862Z" fill="white"/>
<path d="M187.807 48.2847C186.68 48.2847 185.763 47.9575 185.061 47.3032C184.358 46.6488 184.008 45.74 184.008 44.5767V43.268C184.008 42.1606 184.406 41.2462 185.2 40.5275C185.994 39.8088 187.235 39.4509 188.919 39.4509H192.721V38.4414C192.721 37.9884 192.639 37.6108 192.471 37.3088C192.306 37.0096 191.996 36.7915 191.54 36.6545C191.088 36.5174 190.399 36.4503 189.474 36.4503H185.006V34.1069C185.726 33.8888 186.566 33.6987 187.516 33.5337C188.47 33.3715 189.619 33.2876 190.971 33.2876C192.209 33.2876 193.271 33.433 194.147 33.7238C195.027 34.0147 195.692 34.5152 196.145 35.2227C196.597 35.9302 196.825 36.9117 196.825 38.1673V48.1197H193.578L192.912 46.5649C192.781 46.7103 192.559 46.8753 192.246 47.0571C191.93 47.2389 191.549 47.4262 191.094 47.6164C190.641 47.8065 190.132 47.9659 189.568 48.0946C189.005 48.2204 188.416 48.2847 187.807 48.2847ZM189.887 45.4771C190.072 45.4771 190.28 45.4548 190.51 45.41C190.741 45.3653 190.983 45.3093 191.23 45.245C191.481 45.1807 191.711 45.1192 191.925 45.0549C192.138 44.9906 192.314 44.9318 192.451 44.8787C192.59 44.8228 192.676 44.7892 192.716 44.7696V41.3608L190.217 41.5258C189.497 41.5817 188.965 41.7635 188.621 42.0711C188.279 42.3815 188.108 42.7982 188.108 43.3267V43.9251C188.108 44.2887 188.188 44.5879 188.345 44.8256C188.501 45.0633 188.715 45.231 188.982 45.3289C189.25 45.4296 189.551 45.4799 189.884 45.4799L189.887 45.4771Z" fill="white"/>
<path d="M205.553 48.1224V33.4805H208.939L209.659 34.9793C210.214 34.5263 210.912 34.1208 211.754 33.7657C212.596 33.4105 213.461 33.2344 214.349 33.2344C215.57 33.2344 216.512 33.4721 217.178 33.9419C217.844 34.4145 218.311 35.0464 218.578 35.8378C218.846 36.6292 218.979 37.5045 218.979 38.4692V48.1224H214.873V38.9894C214.873 38.5168 214.785 38.1253 214.608 37.8177C214.432 37.5073 214.187 37.2724 213.874 37.1102C213.558 36.9452 213.18 36.8641 212.736 36.8641C212.346 36.8641 211.973 36.9088 211.612 37.0011C211.25 37.0934 210.909 37.2193 210.584 37.3842C210.26 37.5464 209.95 37.7394 209.654 37.9575V48.128H205.547L205.553 48.1224Z" fill="white"/>
</svg>
